<svg xmlns="http://www.w3.org/2000/svg" viewBox="0 0 6427.72 1507.87"><g id="Layer_1" data-name="Layer 1"><rect x="263.09" y="255.74" width="1022.52" height="1022.52" rx="105.75" transform="translate(-315.55 772.19) rotate(-45)"/></g><g id="Layer_2" data-name="Layer 2"><path d="M894,715.62,652.46,474.12a72.65,72.65,0,0,0-102.75,0L308.2,715.62a72.66,72.66,0,0,0,0,102.75l241.51,241.51a72.66,72.66,0,0,0,102.75,0L894,818.37A72.66,72.66,0,0,0,894,715.62ZM601.08,965.81,402.27,767,601.09,568.18,799.9,767Z" style="fill:#fff"/><path d="M1243.56,715.8l-241.5-240.75a72.82,72.82,0,0,0-102.75,0L810,564.11l72.73,72.49,68-67.78L1149.5,767,950.68,965.18l-68-67.78L810,969.89l89.35,89.05a72.82,72.82,0,0,0,102.75,0l241.51-240.74A72.26,72.26,0,0,0,1243.56,715.8Z" style="fill:#818386"/><text transform="translate(1644.71 1052.48)" style="font-size:858.2268676757812px;fill:#fff;font-family:Poppins-Bold, Poppins;font-weight:700">DailyCek</text><circle cx="5578.98" cy="1027.86" r="62.34" style="fill:#fff;stroke:#231f20;stroke-miterlimit:10;stroke-width:13px"/><text transform="translate(5804.1 1049.45)" style="font-size:858.2268676757812px;fill:#818386;font-family:Poppins-Bold, Poppins;font-weight:700;opacity:0.6">it</text></g></svg>